<?xml version="1.0" encoding="UTF-8" standalone="no"?>
<svg
   width="96"
   height="70"
   viewBox="6.1 -1.1 95.8 70.0"
   version="1.1"
   xmlns="http://www.w3.org/2000/svg">
  <g
     transform="matrix(0.27187867,0,0,0.27187867,-7.8718613,-14.503713)"
     fill="#f0b429"
     fill-rule="evenodd">
    <path
       d="m 138.54,302.52 c -1.78,0.63 -3.86,0.93 -6.15,1.06 -2.29,0.13 -4.88,-0.04 -7.59,-0.29 -2.71,-0.25 -5.68,-0.72 -8.68,-1.2 -3,-0.47 -6.21,-1.07 -9.34,-1.68 -3.14,-0.6 -6.4,-1.24 -9.48,-1.93 -3.08,-0.69 -6.19,-1.39 -9.01,-2.21 -2.82,-0.81 -5.56,-1.66 -7.9,-2.69 -2.34,-1.04 -4.48,-2.17 -6.15,-3.5 -1.68,-1.33 -3.03,-2.82 -3.9,-4.49 -0.88,-1.67 -1.33,-3.54 -1.35,-5.52 -0.02,-1.98 0.43,-4.14 1.22,-6.36 0.79,-2.22 2.04,-4.57 3.52,-6.94 1.47,-2.37 3.35,-4.81 5.33,-7.28 1.97,-2.46 4.25,-4.96 6.52,-7.51 2.28,-2.55 4.74,-5.12 7.14,-7.77 2.4,-2.64 4.87,-5.33 7.27,-8.08 2.39,-2.76 4.78,-5.58 7.12,-8.45 2.34,-2.86 4.63,-5.8 6.91,-8.75 2.28,-2.94 4.51,-5.95 6.77,-8.92 2.25,-2.97 4.49,-5.97 6.78,-8.9 2.29,-2.94 4.59,-5.87 6.96,-8.72 2.38,-2.85 4.79,-5.66 7.27,-8.4 2.48,-2.74 5.03,-5.41 7.61,-8.03 2.59,-2.62 5.24,-5.17 7.9,-7.69 2.65,-2.53 5.37,-4.99 8.03,-7.47 2.66,-2.47 5.35,-4.9 7.94,-7.37 2.58,-2.46 5.14,-4.92 7.57,-7.39 2.43,-2.47 4.78,-4.98 7,-7.43 2.22,-2.45 4.32,-4.95 6.33,-7.27 2.02,-2.33 3.9,-4.66 5.75,-6.69 1.86,-2.03 3.61,-3.97 5.41,-5.51 1.79,-1.53 3.53,-2.84 5.34,-3.69 1.81,-0.86 3.64,-1.36 5.54,-1.42 1.91,-0.06 3.87,0.32 5.91,1.05 2.04,0.72 4.14,1.91 6.32,3.31 2.19,1.41 4.44,3.21 6.79,5.11 2.34,1.89 4.75,4.08 7.26,6.25 2.51,2.17 5.1,4.51 7.79,6.78 2.68,2.27 5.47,4.6 8.32,6.85 2.86,2.26 5.82,4.49 8.81,6.68 2.99,2.2 6.08,4.34 9.15,6.48 3.07,2.15 6.2,4.24 9.27,6.39 3.08,2.15 6.17,4.28 9.17,6.49 3.01,2.21 5.99,4.44 8.85,6.77 2.85,2.32 5.66,4.71 8.3,7.19 2.64,2.48 5.19,5.04 7.53,7.68 2.35,2.64 4.57,5.38 6.52,8.15 1.96,2.77 3.75,5.65 5.2,8.49 1.45,2.84 2.69,5.76 3.52,8.56 0.82,2.81 1.36,5.64 1.45,8.27 0.09,2.63 -0.19,5.2 -0.91,7.51 -0.72,2.31 -1.87,4.48 -3.42,6.34 -1.55,1.87 -3.55,3.51 -5.86,4.88 -2.31,1.36 -5.05,2.44 -7.99,3.31 -2.94,0.87 -6.25,1.45 -9.66,1.91 -3.4,0.46 -7.08,0.67 -10.78,0.82 -3.7,0.16 -7.58,0.15 -11.42,0.13 -3.84,-0.02 -7.78,-0.13 -11.64,-0.25 -3.87,-0.13 -7.76,-0.29 -11.56,-0.5 -3.79,-0.21 -7.56,-0.45 -11.2,-0.78 -3.64,-0.34 -7.21,-0.73 -10.64,-1.24 -3.43,-0.52 -6.75,-1.13 -9.94,-1.84 -3.19,-0.71 -6.23,-1.56 -9.19,-2.43 -2.97,-0.86 -5.79,-1.86 -8.6,-2.76 -2.81,-0.9 -5.51,-1.87 -8.27,-2.65 -2.75,-0.77 -5.47,-1.52 -8.26,-1.99 -2.78,-0.48 -5.6,-0.82 -8.44,-0.86 -2.84,-0.04 -5.76,0.14 -8.6,0.6 -2.83,0.46 -5.73,1.2 -8.43,2.18 -2.7,0.98 -5.38,2.25 -7.77,3.71 -2.39,1.46 -4.65,3.19 -6.56,5.06 -1.91,1.87 -3.58,3.98 -4.91,6.18 -1.33,2.2 -2.34,4.6 -3.1,7.04 -0.76,2.45 -1.16,5.04 -1.46,7.63 -0.3,2.58 -0.3,5.28 -0.34,7.88 -0.05,2.61 0.11,5.27 0.07,7.75 -0.04,2.48 -0.03,4.94 -0.31,7.13 -0.27,2.19 -0.64,4.26 -1.33,6.01 -0.7,1.75 -1.6,3.28 -2.82,4.48 -1.22,1.2 -2.73,2.1 -4.5,2.74 z m -4.72,-17.73 c 0.6,-1.05 0.87,-2.36 1.05,-3.88 0.19,-1.51 0.08,-3.31 0.04,-5.23 -0.04,-1.92 -0.26,-4.08 -0.27,-6.3 -0.01,-2.22 -0.05,-4.61 0.22,-6.99 0.26,-2.38 0.65,-4.87 1.39,-7.29 0.74,-2.41 1.72,-4.86 3.03,-7.18 1.3,-2.33 2.92,-4.63 4.81,-6.76 1.89,-2.14 4.11,-4.2 6.53,-6.06 2.41,-1.87 5.13,-3.61 7.96,-5.14 2.83,-1.53 5.91,-2.9 9.02,-4.03 3.11,-1.14 6.4,-2.08 9.63,-2.79 3.23,-0.7 6.56,-1.18 9.74,-1.44 3.19,-0.25 6.38,-0.26 9.38,-0.08 3,0.17 5.91,0.6 8.63,1.14 2.72,0.54 5.27,1.32 7.68,2.09 2.41,0.78 4.63,1.73 6.77,2.56 2.15,0.84 4.14,1.75 6.13,2.45 1.99,0.7 3.87,1.36 5.81,1.77 1.94,0.4 3.85,0.64 5.83,0.65 1.97,0 3.97,-0.23 6.03,-0.63 2.07,-0.39 4.18,-1.04 6.37,-1.72 2.19,-0.69 4.44,-1.58 6.78,-2.38 2.35,-0.81 4.76,-1.71 7.29,-2.43 2.52,-0.72 5.14,-1.42 7.84,-1.9 2.71,-0.48 5.54,-0.82 8.39,-0.99 2.86,-0.16 5.84,-0.11 8.75,0.02 2.92,0.14 5.92,0.48 8.75,0.78 2.84,0.31 5.68,0.76 8.27,1.05 2.58,0.29 5.08,0.62 7.23,0.68 2.16,0.07 4.12,0.04 5.7,-0.29 1.57,-0.33 2.86,-0.87 3.74,-1.69 0.88,-0.83 1.41,-1.94 1.56,-3.27 0.15,-1.33 -0.09,-2.96 -0.65,-4.71 -0.56,-1.76 -1.5,-3.77 -2.69,-5.82 -1.2,-2.05 -2.74,-4.28 -4.46,-6.47 -1.73,-2.2 -3.74,-4.49 -5.89,-6.72 -2.14,-2.22 -4.52,-4.47 -6.98,-6.63 -2.47,-2.17 -5.11,-4.31 -7.81,-6.38 -2.7,-2.08 -5.53,-4.09 -8.38,-6.08 -2.85,-1.98 -5.8,-3.91 -8.72,-5.83 -2.92,-1.93 -5.91,-3.81 -8.82,-5.72 -2.91,-1.91 -5.84,-3.81 -8.66,-5.73 -2.82,-1.93 -5.61,-3.88 -8.26,-5.81 -2.65,-1.93 -5.22,-3.91 -7.65,-5.78 -2.43,-1.88 -4.74,-3.78 -6.92,-5.47 -2.19,-1.68 -4.23,-3.33 -6.2,-4.64 -1.96,-1.32 -3.78,-2.48 -5.57,-3.25 -1.79,-0.77 -3.46,-1.27 -5.16,-1.37 -1.7,-0.11 -3.32,0.16 -5.03,0.75 -1.7,0.58 -3.39,1.57 -5.19,2.77 -1.81,1.19 -3.66,2.74 -5.63,4.39 -1.98,1.64 -4.06,3.55 -6.24,5.48 -2.19,1.93 -4.5,4.01 -6.88,6.09 -2.38,2.07 -4.88,4.21 -7.41,6.35 -2.52,2.15 -5.14,4.31 -7.73,6.5 -2.6,2.19 -5.24,4.4 -7.83,6.66 -2.58,2.26 -5.17,4.55 -7.68,6.91 -2.51,2.36 -4.98,4.77 -7.38,7.26 -2.4,2.48 -4.73,5.04 -7,7.65 -2.27,2.62 -4.47,5.31 -6.63,8.04 -2.16,2.73 -4.24,5.53 -6.33,8.33 -2.08,2.81 -4.1,5.67 -6.16,8.49 -2.05,2.82 -4.08,5.67 -6.15,8.45 -2.07,2.78 -4.16,5.54 -6.28,8.21 -2.13,2.67 -4.3,5.28 -6.46,7.79 -2.16,2.5 -4.39,4.93 -6.51,7.23 -2.12,2.31 -4.27,4.52 -6.2,6.61 -1.93,2.09 -3.83,4.07 -5.38,5.93 -1.54,1.86 -2.93,3.61 -3.89,5.23 -0.96,1.62 -1.63,3.12 -1.85,4.48 -0.22,1.37 -0.05,2.6 0.53,3.72 0.57,1.11 1.6,2.09 2.91,2.99 1.32,0.9 3.07,1.66 4.97,2.4 1.91,0.73 4.17,1.37 6.45,1.99 2.28,0.61 4.81,1.19 7.23,1.72 2.43,0.52 4.98,1.04 7.32,1.44 2.35,0.41 4.7,0.79 6.77,0.99 2.08,0.2 4.03,0.32 5.68,0.19 1.64,-0.13 3.06,-0.41 4.18,-0.97 1.12,-0.56 1.95,-1.34 2.54,-2.38 z" />
  </g>
</svg>
